<svg xmlns="http://www.w3.org/2000/svg" xmlns:xlink="http://www.w3.org/1999/xlink" width="500" zoomAndPan="magnify" viewBox="0 0 375 374.999991" height="500" preserveAspectRatio="xMidYMid meet" version="1.0"><defs><clipPath id="acf81c6ccd"><path d="M 172 180 L 246.375 180 L 246.375 198 L 172 198 Z M 172 180 " clip-rule="nonzero"/></clipPath><clipPath id="20113712f0"><path d="M 128.625 174 L 217 174 L 217 200 L 128.625 200 Z M 128.625 174 " clip-rule="nonzero"/></clipPath><clipPath id="ed515270b7"><path d="M 149 171.429688 L 225 171.429688 L 225 188 L 149 188 Z M 149 171.429688 " clip-rule="nonzero"/></clipPath><clipPath id="34a13603e0"><path d="M 168.746094 142.203125 L 206.246094 142.203125 L 206.246094 179.703125 L 168.746094 179.703125 Z M 168.746094 142.203125 " clip-rule="nonzero"/></clipPath></defs><g clip-path="url(#acf81c6ccd)"><path fill="#000000" d="M 172.964844 187.929688 C 183.898438 193.117188 195.851562 195.886719 207.984375 195.175781 C 221.722656 194.371094 234.203125 189.21875 245.148438 180.992188 L 246.375 182.625 C 235.105469 191.09375 222.242188 196.390625 208.101562 197.214844 C 195.625 197.941406 183.332031 195.113281 172.085938 189.773438 Z M 172.964844 187.929688 " fill-opacity="1" fill-rule="evenodd"/></g><g clip-path="url(#20113712f0)"><path fill="#000000" d="M 216.425781 175.730469 C 191.605469 204.109375 161.792969 204.53125 128.625 191.660156 L 129.363281 189.757812 C 161.714844 202.3125 190.65625 202.097656 214.890625 174.390625 Z M 216.425781 175.730469 " fill-opacity="1" fill-rule="evenodd"/></g><path fill="#000000" d="M 148.621094 179.5625 C 151.980469 182.371094 155.476562 185.023438 159.101562 187.484375 C 174.28125 197.78125 193.058594 205.578125 211.71875 204.15625 C 218.570312 203.632812 225.160156 201.871094 231.324219 198.835938 L 232.222656 200.664062 C 225.824219 203.816406 218.980469 205.648438 211.871094 206.1875 C 192.730469 207.648438 173.53125 199.734375 157.957031 189.171875 C 154.273438 186.675781 150.722656 183.980469 147.3125 181.125 Z M 148.621094 179.5625 " fill-opacity="1" fill-rule="evenodd"/><path fill="#000000" d="M 157.691406 203.328125 C 177.632812 206.3125 201.507812 206.664062 218.613281 194.296875 C 226.136719 188.859375 231.503906 181.578125 235.226562 173.121094 L 237.097656 173.945312 C 222.605469 206.863281 189.304688 210.125 157.390625 205.347656 Z M 157.691406 203.328125 " fill-opacity="1" fill-rule="evenodd"/><g clip-path="url(#ed515270b7)"><path fill="#000000" d="M 150.902344 171.441406 C 160.777344 178.441406 172.070312 183.234375 184.144531 184.632812 C 197.816406 186.214844 210.992188 183.296875 223.199219 177.082031 L 224.125 178.902344 C 211.558594 185.300781 197.980469 188.289062 183.910156 186.660156 C 171.492188 185.21875 159.875 180.308594 149.71875 173.105469 Z M 150.902344 171.441406 " fill-opacity="1" fill-rule="evenodd"/></g><g clip-path="url(#34a13603e0)"><path fill="#000000" d="M 187.429688 147.675781 L 170.078125 147.675781 C 169.34375 147.675781 168.746094 148.273438 168.746094 149.011719 L 168.746094 178.371094 C 168.746094 179.105469 169.34375 179.703125 170.078125 179.703125 L 199.4375 179.703125 C 200.175781 179.703125 200.773438 179.105469 200.773438 178.371094 L 200.773438 161.019531 C 200.773438 160.285156 200.175781 159.6875 199.4375 159.6875 C 198.703125 159.6875 198.105469 160.285156 198.105469 161.019531 L 198.105469 177.035156 C 198.105469 177.035156 171.414062 177.035156 171.414062 177.035156 C 171.414062 177.035156 171.414062 150.34375 171.414062 150.34375 C 171.414062 150.34375 187.429688 150.34375 187.429688 150.34375 C 188.164062 150.34375 188.761719 149.746094 188.761719 149.011719 C 188.761719 148.273438 188.164062 147.675781 187.429688 147.675781 Z M 175.417969 173.03125 L 194.101562 173.03125 C 194.835938 173.03125 195.4375 172.433594 195.4375 171.699219 C 195.4375 170.960938 194.835938 170.363281 194.101562 170.363281 L 175.417969 170.363281 C 174.679688 170.363281 174.082031 170.960938 174.082031 171.699219 C 174.082031 172.433594 174.679688 173.03125 175.417969 173.03125 Z M 175.417969 167.695312 L 180.757812 167.695312 C 181.492188 167.695312 182.089844 167.097656 182.089844 166.359375 C 182.089844 165.621094 181.492188 165.023438 180.757812 165.023438 L 175.417969 165.023438 C 174.679688 165.023438 174.082031 165.621094 174.082031 166.359375 C 174.082031 167.097656 174.679688 167.695312 175.417969 167.695312 Z M 205.722656 149.953125 C 206.242188 149.433594 206.242188 148.585938 205.722656 148.066406 L 200.382812 142.730469 C 199.863281 142.207031 199.015625 142.207031 198.496094 142.730469 L 185.152344 156.074219 C 184.964844 156.257812 184.835938 156.496094 184.785156 156.757812 L 183.449219 163.429688 C 183.363281 163.867188 183.5 164.320312 183.816406 164.632812 C 184.132812 164.949219 184.582031 165.085938 185.019531 165 L 191.695312 163.664062 C 191.953125 163.613281 192.191406 163.484375 192.375 163.300781 Z M 175.417969 162.355469 L 180.757812 162.355469 C 181.492188 162.355469 182.089844 161.757812 182.089844 161.019531 C 182.089844 160.285156 181.492188 159.6875 180.757812 159.6875 L 175.417969 159.6875 C 174.679688 159.6875 174.082031 160.285156 174.082031 161.019531 C 174.082031 161.757812 174.679688 162.355469 175.417969 162.355469 Z M 175.417969 157.019531 L 182.089844 157.019531 C 182.828125 157.019531 183.425781 156.417969 183.425781 155.683594 C 183.425781 154.945312 182.828125 154.347656 182.089844 154.347656 L 175.417969 154.347656 C 174.679688 154.347656 174.082031 154.945312 174.082031 155.683594 C 174.082031 156.417969 174.679688 157.019531 175.417969 157.019531 Z M 175.417969 157.019531 " fill-opacity="1" fill-rule="evenodd"/></g></svg>