<svg xmlns="http://www.w3.org/2000/svg" xmlns:xlink="http://www.w3.org/1999/xlink" width="500" zoomAndPan="magnify" viewBox="0 0 375 374.999991" height="500" preserveAspectRatio="xMidYMid meet" version="1.0"><defs><g/><clipPath id="a272122862"><path d="M 172 180 L 246.375 180 L 246.375 198 L 172 198 Z M 172 180 " clip-rule="nonzero"/></clipPath><clipPath id="598eba98c8"><path d="M 128.625 174 L 217 174 L 217 200 L 128.625 200 Z M 128.625 174 " clip-rule="nonzero"/></clipPath><clipPath id="fc8454a797"><path d="M 149 171.429688 L 225 171.429688 L 225 188 L 149 188 Z M 149 171.429688 " clip-rule="nonzero"/></clipPath><clipPath id="8ccd6d2d14"><path d="M 168.746094 141.457031 L 206.246094 141.457031 L 206.246094 178.957031 L 168.746094 178.957031 Z M 168.746094 141.457031 " clip-rule="nonzero"/></clipPath></defs><g clip-path="url(#a272122862)"><path fill="#000000" d="M 172.964844 187.929688 C 183.898438 193.117188 195.851562 195.886719 207.984375 195.175781 C 221.722656 194.371094 234.203125 189.21875 245.148438 180.992188 L 246.375 182.625 C 235.105469 191.09375 222.242188 196.390625 208.101562 197.214844 C 195.625 197.941406 183.332031 195.113281 172.085938 189.773438 Z M 172.964844 187.929688 " fill-opacity="1" fill-rule="evenodd"/></g><g clip-path="url(#598eba98c8)"><path fill="#000000" d="M 216.425781 175.730469 C 191.605469 204.109375 161.792969 204.53125 128.625 191.660156 L 129.363281 189.757812 C 161.714844 202.3125 190.65625 202.097656 214.890625 174.390625 Z M 216.425781 175.730469 " fill-opacity="1" fill-rule="evenodd"/></g><path fill="#000000" d="M 148.621094 179.5625 C 151.980469 182.371094 155.476562 185.023438 159.101562 187.484375 C 174.28125 197.78125 193.058594 205.578125 211.71875 204.15625 C 218.570312 203.632812 225.160156 201.871094 231.324219 198.835938 L 232.222656 200.664062 C 225.824219 203.816406 218.980469 205.648438 211.871094 206.1875 C 192.730469 207.648438 173.53125 199.734375 157.957031 189.171875 C 154.273438 186.675781 150.722656 183.980469 147.3125 181.125 Z M 148.621094 179.5625 " fill-opacity="1" fill-rule="evenodd"/><path fill="#000000" d="M 157.691406 203.328125 C 177.632812 206.3125 201.507812 206.664062 218.613281 194.296875 C 226.136719 188.859375 231.503906 181.578125 235.226562 173.121094 L 237.097656 173.945312 C 222.605469 206.863281 189.304688 210.125 157.390625 205.347656 Z M 157.691406 203.328125 " fill-opacity="1" fill-rule="evenodd"/><g clip-path="url(#fc8454a797)"><path fill="#000000" d="M 150.902344 171.441406 C 160.777344 178.441406 172.070312 183.234375 184.144531 184.632812 C 197.816406 186.214844 210.992188 183.296875 223.199219 177.082031 L 224.125 178.902344 C 211.558594 185.300781 197.980469 188.289062 183.910156 186.660156 C 171.492188 185.21875 159.875 180.308594 149.71875 173.105469 Z M 150.902344 171.441406 " fill-opacity="1" fill-rule="evenodd"/></g><g clip-path="url(#8ccd6d2d14)"><path fill="#000000" d="M 187.429688 146.929688 L 170.078125 146.929688 C 169.34375 146.929688 168.746094 147.527344 168.746094 148.261719 L 168.746094 177.621094 C 168.746094 178.359375 169.34375 178.957031 170.078125 178.957031 L 199.4375 178.957031 C 200.175781 178.957031 200.773438 178.359375 200.773438 177.621094 L 200.773438 160.273438 C 200.773438 159.539062 200.175781 158.941406 199.4375 158.941406 C 198.703125 158.941406 198.105469 159.539062 198.105469 160.273438 L 198.105469 176.289062 C 198.105469 176.289062 171.414062 176.289062 171.414062 176.289062 C 171.414062 176.289062 171.414062 149.597656 171.414062 149.597656 C 171.414062 149.597656 187.429688 149.597656 187.429688 149.597656 C 188.164062 149.597656 188.761719 149 188.761719 148.261719 C 188.761719 147.527344 188.164062 146.929688 187.429688 146.929688 Z M 175.417969 172.285156 L 194.101562 172.285156 C 194.835938 172.285156 195.4375 171.6875 195.4375 170.949219 C 195.4375 170.214844 194.835938 169.617188 194.101562 169.617188 L 175.417969 169.617188 C 174.679688 169.617188 174.082031 170.214844 174.082031 170.949219 C 174.082031 171.6875 174.679688 172.285156 175.417969 172.285156 Z M 175.417969 166.945312 L 180.757812 166.945312 C 181.492188 166.945312 182.089844 166.347656 182.089844 165.613281 C 182.089844 164.875 181.492188 164.277344 180.757812 164.277344 L 175.417969 164.277344 C 174.679688 164.277344 174.082031 164.875 174.082031 165.613281 C 174.082031 166.347656 174.679688 166.945312 175.417969 166.945312 Z M 205.722656 149.207031 C 206.242188 148.6875 206.242188 147.839844 205.722656 147.320312 L 200.382812 141.980469 C 199.863281 141.460938 199.015625 141.460938 198.496094 141.980469 L 185.152344 155.328125 C 184.964844 155.511719 184.835938 155.75 184.785156 156.007812 L 183.449219 162.683594 C 183.363281 163.121094 183.5 163.570312 183.816406 163.886719 C 184.132812 164.203125 184.582031 164.339844 185.019531 164.253906 L 191.695312 162.917969 C 191.953125 162.867188 192.191406 162.738281 192.375 162.550781 Z M 175.417969 161.609375 L 180.757812 161.609375 C 181.492188 161.609375 182.089844 161.011719 182.089844 160.273438 C 182.089844 159.539062 181.492188 158.941406 180.757812 158.941406 L 175.417969 158.941406 C 174.679688 158.941406 174.082031 159.539062 174.082031 160.273438 C 174.082031 161.011719 174.679688 161.609375 175.417969 161.609375 Z M 175.417969 156.269531 L 182.089844 156.269531 C 182.828125 156.269531 183.425781 155.671875 183.425781 154.9375 C 183.425781 154.199219 182.828125 153.601562 182.089844 153.601562 L 175.417969 153.601562 C 174.679688 153.601562 174.082031 154.199219 174.082031 154.9375 C 174.082031 155.671875 174.679688 156.269531 175.417969 156.269531 Z M 175.417969 156.269531 " fill-opacity="1" fill-rule="evenodd"/></g><g fill="#000000" fill-opacity="1"><g transform="translate(134.524522, 220.976762)"><g><path d="M 2.90625 -7.390625 L 0.046875 -7.390625 L 0.046875 -8.140625 L 6.625 -8.140625 L 6.625 -7.390625 L 3.765625 -7.390625 L 3.765625 0 L 2.90625 0 Z M 2.90625 -7.390625 "/></g></g></g><g fill="#000000" fill-opacity="1"><g transform="translate(147.629322, 220.976762)"><g><path d="M 6.421875 -2.171875 L 1.890625 -2.171875 L 0.921875 0 L 0.015625 0 L 3.75 -8.140625 L 4.59375 -8.140625 L 8.3125 0 L 7.40625 0 Z M 6.109375 -2.875 L 4.15625 -7.25 L 2.203125 -2.875 Z M 6.109375 -2.875 "/></g></g></g><g fill="#000000" fill-opacity="1"><g transform="translate(162.396514, 220.976762)"><g><path d="M 1.328125 -8.140625 L 2.1875 -8.140625 L 2.1875 -0.75 L 6.75 -0.75 L 6.75 0 L 1.328125 0 Z M 1.328125 -8.140625 "/></g></g></g><g fill="#000000" fill-opacity="1"><g transform="translate(175.6757, 220.976762)"><g><path d="M 3.84375 -3.828125 L 2.1875 -2.140625 L 2.1875 0 L 1.328125 0 L 1.328125 -8.140625 L 2.1875 -8.140625 L 2.1875 -3.21875 L 6.96875 -8.140625 L 7.953125 -8.140625 L 4.421875 -4.453125 L 8.203125 0 L 7.171875 0 Z M 3.84375 -3.828125 "/></g></g></g><g fill="#000000" fill-opacity="1"><g transform="translate(190.37314, 220.976762)"><g/></g></g><g fill="#000000" fill-opacity="1"><g transform="translate(199.85093, 220.976762)"><g><path d="M 8.125 -8.140625 L 8.125 0 L 7.421875 0 L 2.1875 -6.609375 L 2.1875 0 L 1.328125 0 L 1.328125 -8.140625 L 2.03125 -8.140625 L 7.28125 -1.53125 L 7.28125 -8.140625 Z M 8.125 -8.140625 "/></g></g></g><g fill="#000000" fill-opacity="1"><g transform="translate(215.734126, 220.976762)"><g><path d="M 7.078125 -0.75 L 7.078125 0 L 1.328125 0 L 1.328125 -8.140625 L 6.90625 -8.140625 L 6.90625 -7.390625 L 2.1875 -7.390625 L 2.1875 -4.5 L 6.390625 -4.5 L 6.390625 -3.765625 L 2.1875 -3.765625 L 2.1875 -0.75 Z M 7.078125 -0.75 "/></g></g></g><g fill="#000000" fill-opacity="1"><g transform="translate(229.943316, 220.976762)"><g><path d="M 6.421875 0 L 3.796875 -3.578125 L 1.1875 0 L 0.203125 0 L 3.296875 -4.1875 L 0.390625 -8.140625 L 1.390625 -8.140625 L 3.84375 -4.8125 L 6.28125 -8.140625 L 7.203125 -8.140625 L 4.328125 -4.203125 L 7.421875 0 Z M 6.421875 0 "/></g></g></g><g fill="#000000" fill-opacity="1"><g transform="translate(244.001375, 220.976762)"><g><path d="M 2.90625 -7.390625 L 0.046875 -7.390625 L 0.046875 -8.140625 L 6.625 -8.140625 L 6.625 -7.390625 L 3.765625 -7.390625 L 3.765625 0 L 2.90625 0 Z M 2.90625 -7.390625 "/></g></g></g></svg>