<svg xmlns="http://www.w3.org/2000/svg" xmlns:xlink="http://www.w3.org/1999/xlink" width="500" zoomAndPan="magnify" viewBox="0 0 375 374.999991" height="500" preserveAspectRatio="xMidYMid meet" version="1.0"><defs><clipPath id="6508063a25"><path d="M 141.675781 168 L 362.71875 168 L 362.71875 217 L 141.675781 217 Z M 141.675781 168 " clip-rule="nonzero"/></clipPath><clipPath id="9011d04108"><path d="M 12.765625 148 L 274 148 L 274 224.890625 L 12.765625 224.890625 Z M 12.765625 148 " clip-rule="nonzero"/></clipPath><clipPath id="b70346cbf6"><path d="M 132.003906 53.121094 L 243.457031 53.121094 L 243.457031 164.570312 L 132.003906 164.570312 Z M 132.003906 53.121094 " clip-rule="nonzero"/></clipPath></defs><g clip-path="url(#6508063a25)"><path fill="#000000" d="M 144.542969 189.019531 C 177.039062 204.4375 212.5625 212.667969 248.621094 210.554688 C 289.453125 208.164062 326.542969 192.851562 359.074219 168.402344 L 362.71875 173.253906 C 329.226562 198.421875 290.996094 214.164062 248.96875 216.613281 C 211.890625 218.773438 175.355469 210.367188 141.929688 194.5 Z M 144.542969 189.019531 " fill-opacity="1" fill-rule="evenodd"/></g><g clip-path="url(#9011d04108)"><path fill="#000000" d="M 273.710938 152.761719 C 199.941406 237.105469 111.339844 238.359375 12.765625 200.105469 L 14.960938 194.453125 C 111.109375 231.765625 197.121094 231.125 269.148438 148.78125 Z M 273.710938 152.761719 " fill-opacity="1" fill-rule="evenodd"/></g><path fill="#000000" d="M 72.195312 164.152344 C 82.175781 172.5 92.566406 180.382812 103.339844 187.695312 C 148.457031 218.296875 204.261719 241.46875 259.71875 237.242188 C 280.082031 235.6875 299.667969 230.453125 317.988281 221.433594 L 320.65625 226.867188 C 301.640625 236.234375 281.300781 241.679688 260.171875 243.28125 C 203.285156 247.621094 146.226562 224.101562 99.941406 192.710938 C 88.992188 185.292969 78.441406 177.28125 68.304688 168.796875 Z M 72.195312 164.152344 " fill-opacity="1" fill-rule="evenodd"/><path fill="#000000" d="M 99.152344 234.78125 C 158.417969 243.652344 229.371094 244.699219 280.210938 207.941406 C 302.570312 191.78125 318.519531 170.140625 329.585938 145.007812 L 335.144531 147.457031 C 292.074219 245.289062 193.105469 254.984375 98.257812 240.785156 Z M 99.152344 234.78125 " fill-opacity="1" fill-rule="evenodd"/><path fill="#000000" d="M 78.972656 140.015625 C 108.320312 160.820312 141.882812 175.0625 177.769531 179.21875 C 218.402344 183.921875 257.558594 175.25 293.839844 156.78125 L 296.589844 162.191406 C 259.242188 181.207031 218.890625 190.085938 177.074219 185.246094 C 140.167969 180.960938 105.640625 166.367188 75.457031 144.960938 Z M 78.972656 140.015625 " fill-opacity="1" fill-rule="evenodd"/><g clip-path="url(#b70346cbf6)"><path fill="#000000" d="M 187.53125 69.382812 L 135.964844 69.382812 C 133.78125 69.382812 132.003906 71.160156 132.003906 73.355469 L 132.003906 160.609375 C 132.003906 162.792969 133.78125 164.570312 135.964844 164.570312 L 223.21875 164.570312 C 225.414062 164.570312 227.191406 162.792969 227.191406 160.609375 L 227.191406 109.042969 C 227.191406 106.859375 225.414062 105.082031 223.21875 105.082031 C 221.039062 105.082031 219.261719 106.859375 219.261719 109.042969 L 219.261719 156.640625 C 219.261719 156.640625 139.933594 156.640625 139.933594 156.640625 C 139.933594 156.640625 139.933594 77.3125 139.933594 77.3125 C 139.933594 77.3125 187.53125 77.3125 187.53125 77.3125 C 189.714844 77.3125 191.492188 75.539062 191.492188 73.355469 C 191.492188 71.160156 189.714844 69.382812 187.53125 69.382812 Z M 151.832031 144.742188 L 207.363281 144.742188 C 209.542969 144.742188 211.332031 142.964844 211.332031 140.78125 C 211.332031 138.585938 209.542969 136.8125 207.363281 136.8125 L 151.832031 136.8125 C 149.640625 136.8125 147.863281 138.585938 147.863281 140.78125 C 147.863281 142.964844 149.640625 144.742188 151.832031 144.742188 Z M 151.832031 128.882812 L 167.703125 128.882812 C 169.886719 128.882812 171.664062 127.105469 171.664062 124.910156 C 171.664062 122.71875 169.886719 120.941406 167.703125 120.941406 L 151.832031 120.941406 C 149.640625 120.941406 147.863281 122.71875 147.863281 124.910156 C 147.863281 127.105469 149.640625 128.882812 151.832031 128.882812 Z M 241.898438 76.152344 C 243.445312 74.609375 243.445312 72.089844 241.898438 70.546875 L 226.03125 54.6875 C 224.484375 53.132812 221.964844 53.132812 220.421875 54.6875 L 180.765625 94.34375 C 180.207031 94.890625 179.824219 95.597656 179.671875 96.375 L 175.703125 116.203125 C 175.449219 117.503906 175.855469 118.851562 176.792969 119.78125 C 177.734375 120.722656 179.070312 121.128906 180.371094 120.871094 L 200.210938 116.902344 C 200.976562 116.75 201.683594 116.367188 202.230469 115.820312 Z M 151.832031 113.011719 L 167.703125 113.011719 C 169.886719 113.011719 171.664062 111.234375 171.664062 109.042969 C 171.664062 106.859375 169.886719 105.082031 167.703125 105.082031 L 151.832031 105.082031 C 149.640625 105.082031 147.863281 106.859375 147.863281 109.042969 C 147.863281 111.234375 149.640625 113.011719 151.832031 113.011719 Z M 151.832031 97.152344 L 171.664062 97.152344 C 173.855469 97.152344 175.632812 95.367188 175.632812 93.183594 C 175.632812 90.988281 173.855469 89.214844 171.664062 89.214844 L 151.832031 89.214844 C 149.640625 89.214844 147.863281 90.988281 147.863281 93.183594 C 147.863281 95.367188 149.640625 97.152344 151.832031 97.152344 Z M 151.832031 97.152344 " fill-opacity="1" fill-rule="evenodd"/></g></svg>