<svg xmlns="http://www.w3.org/2000/svg" xmlns:xlink="http://www.w3.org/1999/xlink" width="500" zoomAndPan="magnify" viewBox="0 0 375 374.999991" height="500" preserveAspectRatio="xMidYMid meet" version="1.0"><defs><clipPath id="7035ce6d45"><path d="M 140 183 L 370.132812 183 L 370.132812 233.925781 L 140 233.925781 Z M 140 183 " clip-rule="nonzero"/></clipPath><clipPath id="916d465d03"><path d="M 5.371094 162.007812 L 277.660156 162.007812 L 277.660156 242 L 5.371094 242 Z M 5.371094 162.007812 " clip-rule="nonzero"/></clipPath><clipPath id="abf69731a7"><path d="M 129.65625 63.113281 L 245.824219 63.113281 L 245.824219 179.277344 L 129.65625 179.277344 Z M 129.65625 63.113281 " clip-rule="nonzero"/></clipPath></defs><g clip-path="url(#7035ce6d45)"><path fill="#ffffff" d="M 142.726562 204.761719 C 176.597656 220.832031 213.621094 229.410156 251.207031 227.207031 C 293.765625 224.714844 332.425781 208.757812 366.332031 183.273438 L 370.132812 188.328125 C 335.222656 214.5625 295.375 230.96875 251.570312 233.523438 C 212.921875 235.773438 174.839844 227.011719 140 210.472656 Z M 142.726562 204.761719 " fill-opacity="1" fill-rule="evenodd"/></g><g clip-path="url(#916d465d03)"><path fill="#ffffff" d="M 277.359375 166.96875 C 200.46875 254.882812 108.117188 256.1875 5.371094 216.316406 L 7.660156 210.425781 C 107.878906 249.316406 197.527344 248.648438 272.601562 162.820312 Z M 277.359375 166.96875 " fill-opacity="1" fill-rule="evenodd"/></g><path fill="#ffffff" d="M 67.316406 178.84375 C 77.71875 187.542969 88.550781 195.757812 99.777344 203.382812 C 146.804688 235.277344 204.972656 259.429688 262.773438 255.023438 C 284 253.40625 304.414062 247.949219 323.507812 238.546875 L 326.289062 244.210938 C 306.46875 253.972656 285.269531 259.648438 263.246094 261.320312 C 203.953125 265.84375 144.480469 241.328125 96.238281 208.609375 C 84.824219 200.878906 73.828125 192.527344 63.261719 183.683594 Z M 67.316406 178.84375 " fill-opacity="1" fill-rule="evenodd"/><path fill="#ffffff" d="M 95.414062 252.460938 C 157.1875 261.707031 231.144531 262.796875 284.132812 224.484375 C 307.4375 207.640625 324.0625 185.085938 335.597656 158.886719 L 341.390625 161.441406 C 296.5 263.414062 193.34375 273.519531 94.480469 258.71875 Z M 95.414062 252.460938 " fill-opacity="1" fill-rule="evenodd"/><path fill="#ffffff" d="M 74.378906 153.683594 C 104.96875 175.371094 139.953125 190.214844 177.359375 194.546875 C 219.710938 199.449219 260.523438 190.410156 298.339844 171.160156 L 301.207031 176.796875 C 262.277344 196.617188 220.21875 205.875 176.632812 200.828125 C 138.164062 196.363281 102.175781 181.152344 70.714844 158.839844 Z M 74.378906 153.683594 " fill-opacity="1" fill-rule="evenodd"/><g clip-path="url(#abf69731a7)"><path fill="#ffffff" d="M 187.53125 80.0625 L 133.785156 80.0625 C 131.507812 80.0625 129.65625 81.914062 129.65625 84.203125 L 129.65625 175.148438 C 129.65625 177.425781 131.507812 179.277344 133.785156 179.277344 L 224.730469 179.277344 C 227.019531 179.277344 228.871094 177.425781 228.871094 175.148438 L 228.871094 121.402344 C 228.871094 119.125 227.019531 117.273438 224.730469 117.273438 C 222.457031 117.273438 220.605469 119.125 220.605469 121.402344 L 220.605469 171.011719 C 220.605469 171.011719 137.921875 171.011719 137.921875 171.011719 C 137.921875 171.011719 137.921875 88.328125 137.921875 88.328125 C 137.921875 88.328125 187.53125 88.328125 187.53125 88.328125 C 189.808594 88.328125 191.660156 86.480469 191.660156 84.203125 C 191.660156 81.914062 189.808594 80.0625 187.53125 80.0625 Z M 150.324219 158.609375 L 208.203125 158.609375 C 210.476562 158.609375 212.339844 156.757812 212.339844 154.484375 C 212.339844 152.195312 210.476562 150.347656 208.203125 150.347656 L 150.324219 150.347656 C 148.039062 150.347656 146.1875 152.195312 146.1875 154.484375 C 146.1875 156.757812 148.039062 158.609375 150.324219 158.609375 Z M 150.324219 142.082031 L 166.867188 142.082031 C 169.140625 142.082031 170.992188 140.226562 170.992188 137.941406 C 170.992188 135.65625 169.140625 133.804688 166.867188 133.804688 L 150.324219 133.804688 C 148.039062 133.804688 146.1875 135.65625 146.1875 137.941406 C 146.1875 140.226562 148.039062 142.082031 150.324219 142.082031 Z M 244.199219 87.117188 C 245.8125 85.511719 245.8125 82.882812 244.199219 81.277344 L 227.660156 64.746094 C 226.050781 63.125 223.421875 63.125 221.816406 64.746094 L 180.480469 106.082031 C 179.898438 106.648438 179.5 107.386719 179.339844 108.199219 L 175.203125 128.863281 C 174.9375 130.21875 175.363281 131.625 176.339844 132.59375 C 177.320312 133.574219 178.714844 134 180.070312 133.730469 L 200.75 129.59375 C 201.546875 129.433594 202.285156 129.035156 202.855469 128.464844 Z M 150.324219 125.539062 L 166.867188 125.539062 C 169.140625 125.539062 170.992188 123.683594 170.992188 121.402344 C 170.992188 119.125 169.140625 117.273438 166.867188 117.273438 L 150.324219 117.273438 C 148.039062 117.273438 146.1875 119.125 146.1875 121.402344 C 146.1875 123.683594 148.039062 125.539062 150.324219 125.539062 Z M 150.324219 109.007812 L 170.992188 109.007812 C 173.277344 109.007812 175.128906 107.148438 175.128906 104.871094 C 175.128906 102.582031 173.277344 100.734375 170.992188 100.734375 L 150.324219 100.734375 C 148.039062 100.734375 146.1875 102.582031 146.1875 104.871094 C 146.1875 107.148438 148.039062 109.007812 150.324219 109.007812 Z M 150.324219 109.007812 " fill-opacity="1" fill-rule="evenodd"/></g></svg>