<svg xmlns="http://www.w3.org/2000/svg" xmlns:xlink="http://www.w3.org/1999/xlink" width="500" zoomAndPan="magnify" viewBox="0 0 375 374.999991" height="500" preserveAspectRatio="xMidYMid meet" version="1.0"><defs><g/><clipPath id="2cd2e2bb47"><path d="M 140 183 L 370.132812 183 L 370.132812 233.925781 L 140 233.925781 Z M 140 183 " clip-rule="nonzero"/></clipPath><clipPath id="404bd1a01a"><path d="M 5.371094 162.007812 L 277.660156 162.007812 L 277.660156 242 L 5.371094 242 Z M 5.371094 162.007812 " clip-rule="nonzero"/></clipPath><clipPath id="8ce7c5c814"><path d="M 129.65625 63.113281 L 245.824219 63.113281 L 245.824219 179.277344 L 129.65625 179.277344 Z M 129.65625 63.113281 " clip-rule="nonzero"/></clipPath><clipPath id="e9255d8c05"><path d="M 140 182.492188 L 370.757812 182.492188 L 370.757812 233.648438 L 140 233.648438 Z M 140 182.492188 " clip-rule="nonzero"/></clipPath><clipPath id="3acd45dfe0"><path d="M 5.394531 162 L 278 162 L 278 241.886719 L 5.394531 241.886719 Z M 5.394531 162 " clip-rule="nonzero"/></clipPath><clipPath id="d117d22957"><path d="M 129.882812 62.554688 L 246 62.554688 L 246 178.910156 L 129.882812 178.910156 Z M 129.882812 62.554688 " clip-rule="nonzero"/></clipPath></defs><g clip-path="url(#2cd2e2bb47)"><path fill="#ffffff" d="M 142.726562 204.761719 C 176.597656 220.832031 213.621094 229.410156 251.207031 227.207031 C 293.765625 224.714844 332.425781 208.757812 366.332031 183.273438 L 370.132812 188.328125 C 335.222656 214.5625 295.375 230.96875 251.570312 233.523438 C 212.921875 235.773438 174.839844 227.011719 140 210.472656 Z M 142.726562 204.761719 " fill-opacity="1" fill-rule="evenodd"/></g><g clip-path="url(#404bd1a01a)"><path fill="#ffffff" d="M 277.359375 166.96875 C 200.46875 254.882812 108.117188 256.1875 5.371094 216.316406 L 7.660156 210.425781 C 107.878906 249.316406 197.527344 248.648438 272.601562 162.820312 Z M 277.359375 166.96875 " fill-opacity="1" fill-rule="evenodd"/></g><path fill="#ffffff" d="M 67.316406 178.84375 C 77.71875 187.542969 88.550781 195.757812 99.777344 203.382812 C 146.804688 235.277344 204.972656 259.429688 262.773438 255.023438 C 284 253.40625 304.414062 247.949219 323.507812 238.546875 L 326.289062 244.210938 C 306.46875 253.972656 285.269531 259.648438 263.246094 261.320312 C 203.953125 265.84375 144.480469 241.328125 96.238281 208.609375 C 84.824219 200.878906 73.828125 192.527344 63.261719 183.683594 Z M 67.316406 178.84375 " fill-opacity="1" fill-rule="evenodd"/><path fill="#ffffff" d="M 95.414062 252.460938 C 157.1875 261.707031 231.144531 262.796875 284.132812 224.484375 C 307.4375 207.640625 324.0625 185.085938 335.597656 158.886719 L 341.390625 161.441406 C 296.5 263.414062 193.34375 273.519531 94.480469 258.71875 Z M 95.414062 252.460938 " fill-opacity="1" fill-rule="evenodd"/><path fill="#ffffff" d="M 74.378906 153.683594 C 104.96875 175.371094 139.953125 190.214844 177.359375 194.546875 C 219.710938 199.449219 260.523438 190.410156 298.339844 171.160156 L 301.207031 176.796875 C 262.277344 196.617188 220.21875 205.875 176.632812 200.828125 C 138.164062 196.363281 102.175781 181.152344 70.714844 158.839844 Z M 74.378906 153.683594 " fill-opacity="1" fill-rule="evenodd"/><g clip-path="url(#8ce7c5c814)"><path fill="#ffffff" d="M 187.53125 80.0625 L 133.785156 80.0625 C 131.507812 80.0625 129.65625 81.914062 129.65625 84.203125 L 129.65625 175.148438 C 129.65625 177.425781 131.507812 179.277344 133.785156 179.277344 L 224.730469 179.277344 C 227.019531 179.277344 228.871094 177.425781 228.871094 175.148438 L 228.871094 121.402344 C 228.871094 119.125 227.019531 117.273438 224.730469 117.273438 C 222.457031 117.273438 220.605469 119.125 220.605469 121.402344 L 220.605469 171.011719 C 220.605469 171.011719 137.921875 171.011719 137.921875 171.011719 C 137.921875 171.011719 137.921875 88.328125 137.921875 88.328125 C 137.921875 88.328125 187.53125 88.328125 187.53125 88.328125 C 189.808594 88.328125 191.660156 86.480469 191.660156 84.203125 C 191.660156 81.914062 189.808594 80.0625 187.53125 80.0625 Z M 150.324219 158.609375 L 208.203125 158.609375 C 210.476562 158.609375 212.339844 156.757812 212.339844 154.484375 C 212.339844 152.195312 210.476562 150.347656 208.203125 150.347656 L 150.324219 150.347656 C 148.039062 150.347656 146.1875 152.195312 146.1875 154.484375 C 146.1875 156.757812 148.039062 158.609375 150.324219 158.609375 Z M 150.324219 142.082031 L 166.867188 142.082031 C 169.140625 142.082031 170.992188 140.226562 170.992188 137.941406 C 170.992188 135.65625 169.140625 133.804688 166.867188 133.804688 L 150.324219 133.804688 C 148.039062 133.804688 146.1875 135.65625 146.1875 137.941406 C 146.1875 140.226562 148.039062 142.082031 150.324219 142.082031 Z M 244.199219 87.117188 C 245.8125 85.511719 245.8125 82.882812 244.199219 81.277344 L 227.660156 64.746094 C 226.050781 63.125 223.421875 63.125 221.816406 64.746094 L 180.480469 106.082031 C 179.898438 106.648438 179.5 107.386719 179.339844 108.199219 L 175.203125 128.863281 C 174.9375 130.21875 175.363281 131.625 176.339844 132.59375 C 177.320312 133.574219 178.714844 134 180.070312 133.730469 L 200.75 129.59375 C 201.546875 129.433594 202.285156 129.035156 202.855469 128.464844 Z M 150.324219 125.539062 L 166.867188 125.539062 C 169.140625 125.539062 170.992188 123.683594 170.992188 121.402344 C 170.992188 119.125 169.140625 117.273438 166.867188 117.273438 L 150.324219 117.273438 C 148.039062 117.273438 146.1875 119.125 146.1875 121.402344 C 146.1875 123.683594 148.039062 125.539062 150.324219 125.539062 Z M 150.324219 109.007812 L 170.992188 109.007812 C 173.277344 109.007812 175.128906 107.148438 175.128906 104.871094 C 175.128906 102.582031 173.277344 100.734375 170.992188 100.734375 L 150.324219 100.734375 C 148.039062 100.734375 146.1875 102.582031 146.1875 104.871094 C 146.1875 107.148438 148.039062 109.007812 150.324219 109.007812 Z M 150.324219 109.007812 " fill-opacity="1" fill-rule="evenodd"/></g><g clip-path="url(#e9255d8c05)"><path fill="#ffffff" d="M 142.972656 204.4375 C 176.902344 220.53125 213.988281 229.125 251.632812 226.917969 C 294.265625 224.421875 332.988281 208.4375 366.949219 182.910156 L 370.757812 187.976562 C 335.789062 214.253906 295.875 230.6875 251.996094 233.246094 C 213.285156 235.5 175.144531 226.722656 140.246094 210.15625 Z M 142.972656 204.4375 " fill-opacity="1" fill-rule="evenodd"/></g><g clip-path="url(#3acd45dfe0)"><path fill="#ffffff" d="M 277.828125 166.582031 C 200.8125 254.640625 108.308594 255.949219 5.394531 216.007812 L 7.6875 210.109375 C 108.066406 249.0625 197.867188 248.394531 273.066406 162.425781 Z M 277.828125 166.582031 " fill-opacity="1" fill-rule="evenodd"/></g><path fill="#ffffff" d="M 67.441406 178.472656 C 77.859375 187.1875 88.707031 195.417969 99.957031 203.054688 C 147.058594 235.003906 205.320312 259.195312 263.222656 254.78125 C 284.480469 253.160156 304.929688 247.695312 324.054688 238.277344 L 326.839844 243.949219 C 306.988281 253.730469 285.753906 259.414062 263.695312 261.085938 C 204.300781 265.617188 144.730469 241.0625 96.410156 208.289062 C 84.976562 200.546875 73.960938 192.179688 63.378906 183.324219 Z M 67.441406 178.472656 " fill-opacity="1" fill-rule="evenodd"/><path fill="#ffffff" d="M 95.585938 252.210938 C 157.460938 261.472656 231.535156 262.566406 284.613281 224.191406 C 307.960938 207.320312 324.609375 184.726562 336.164062 158.484375 L 341.96875 161.042969 C 297 263.183594 193.675781 273.304688 94.652344 258.480469 Z M 95.585938 252.210938 " fill-opacity="1" fill-rule="evenodd"/><path fill="#ffffff" d="M 74.515625 153.273438 C 105.15625 174.996094 140.195312 189.863281 177.664062 194.203125 C 220.085938 199.113281 260.964844 190.058594 298.84375 170.777344 L 301.714844 176.425781 C 262.722656 196.277344 220.59375 205.550781 176.9375 200.496094 C 138.40625 196.023438 102.359375 180.785156 70.847656 158.4375 Z M 74.515625 153.273438 " fill-opacity="1" fill-rule="evenodd"/><g clip-path="url(#d117d22957)"><path fill="#ffffff" d="M 187.855469 79.53125 L 134.019531 79.53125 C 131.738281 79.53125 129.882812 81.386719 129.882812 83.679688 L 129.882812 174.773438 C 129.882812 177.054688 131.738281 178.910156 134.019531 178.910156 L 225.113281 178.910156 C 227.40625 178.910156 229.261719 177.054688 229.261719 174.773438 L 229.261719 120.9375 C 229.261719 118.65625 227.40625 116.800781 225.113281 116.800781 C 222.839844 116.800781 220.980469 118.65625 220.980469 120.9375 L 220.980469 170.632812 C 220.980469 170.632812 138.160156 170.632812 138.160156 170.632812 C 138.160156 170.632812 138.160156 87.808594 138.160156 87.808594 C 138.160156 87.808594 187.855469 87.808594 187.855469 87.808594 C 190.132812 87.808594 191.988281 85.957031 191.988281 83.679688 C 191.988281 81.386719 190.132812 79.53125 187.855469 79.53125 Z M 150.582031 158.207031 L 208.558594 158.207031 C 210.835938 158.207031 212.703125 156.351562 212.703125 154.074219 C 212.703125 151.78125 210.835938 149.929688 208.558594 149.929688 L 150.582031 149.929688 C 148.296875 149.929688 146.441406 151.78125 146.441406 154.074219 C 146.441406 156.351562 148.296875 158.207031 150.582031 158.207031 Z M 150.582031 141.652344 L 167.152344 141.652344 C 169.433594 141.652344 171.289062 139.796875 171.289062 137.503906 C 171.289062 135.214844 169.433594 133.359375 167.152344 133.359375 L 150.582031 133.359375 C 148.296875 133.359375 146.441406 135.214844 146.441406 137.503906 C 146.441406 139.796875 148.296875 141.652344 150.582031 141.652344 Z M 244.617188 86.597656 C 246.230469 84.988281 246.230469 82.359375 244.617188 80.746094 L 228.050781 64.1875 C 226.433594 62.566406 223.804688 62.566406 222.195312 64.1875 L 180.792969 105.589844 C 180.207031 106.164062 179.808594 106.898438 179.648438 107.710938 L 175.503906 128.414062 C 175.242188 129.769531 175.664062 131.179688 176.644531 132.148438 C 177.625 133.132812 179.019531 133.554688 180.378906 133.285156 L 201.09375 129.144531 C 201.890625 128.984375 202.628906 128.585938 203.203125 128.011719 Z M 150.582031 125.082031 L 167.152344 125.082031 C 169.433594 125.082031 171.289062 123.226562 171.289062 120.9375 C 171.289062 118.65625 169.433594 116.800781 167.152344 116.800781 L 150.582031 116.800781 C 148.296875 116.800781 146.441406 118.65625 146.441406 120.9375 C 146.441406 123.226562 148.296875 125.082031 150.582031 125.082031 Z M 150.582031 108.523438 L 171.289062 108.523438 C 173.578125 108.523438 175.433594 106.660156 175.433594 104.378906 C 175.433594 102.089844 173.578125 100.238281 171.289062 100.238281 L 150.582031 100.238281 C 148.296875 100.238281 146.441406 102.089844 146.441406 104.378906 C 146.441406 106.660156 148.296875 108.523438 150.582031 108.523438 Z M 150.582031 108.523438 " fill-opacity="1" fill-rule="evenodd"/></g><g fill="#000000" fill-opacity="0.502"><g transform="translate(57.28755, 282.248166)"><g><path d="M 10.375 -9.84375 L 5.609375 -12.015625 L 6.890625 -14.8125 L 19.84375 -8.875 L 18.5625 -6.078125 L 13.8125 -8.265625 L 8.28125 3.796875 L 4.84375 2.21875 Z M 10.375 -9.84375 "/></g></g></g><g fill="#000000" fill-opacity="0.502"><g transform="translate(86.394528, 294.649935)"><g><path d="M 13.15625 0.65625 L 5.953125 -1.734375 L 3.484375 1.15625 L -0.1875 -0.0625 L 11.828125 -13.296875 L 15.375 -12.125 L 17.21875 5.671875 L 13.4375 4.4375 Z M 12.9375 -2.4375 L 12.421875 -9.203125 L 8.015625 -4.0625 Z M 12.9375 -2.4375 "/></g></g></g><g fill="#000000" fill-opacity="0.502"><g transform="translate(120.029665, 304.620962)"><g><path d="M 5.25 -15.59375 L 8.953125 -14.828125 L 6.234375 -1.84375 L 14.265625 -0.15625 L 13.625 2.859375 L 1.890625 0.40625 Z M 5.25 -15.59375 "/></g></g></g><g fill="#000000" fill-opacity="0.502"><g transform="translate(150.822942, 310.223667)"><g><path d="M 8.484375 -5.625 L 6.078125 -3.578125 L 5.671875 0.546875 L 1.921875 0.1875 L 3.515625 -16.078125 L 7.265625 -15.71875 L 6.515625 -8.125 L 14.46875 -15 L 18.65625 -14.59375 L 11.203125 -8 L 17.46875 1.703125 L 13.0625 1.28125 Z M 8.484375 -5.625 "/></g></g></g><g fill="#000000" fill-opacity="0.502"><g transform="translate(185.112215, 312.48071)"><g/></g></g><g fill="#000000" fill-opacity="0.502"><g transform="translate(208.839039, 311.938355)"><g><path d="M 15.234375 -17.953125 L 16.859375 -1.6875 L 13.765625 -1.375 L 4.65625 -10.4375 L 5.640625 -0.5625 L 1.921875 -0.1875 L 0.296875 -16.453125 L 3.40625 -16.765625 L 12.5 -7.703125 L 11.515625 -17.578125 Z M 15.234375 -17.953125 "/></g></g></g><g fill="#000000" fill-opacity="0.502"><g transform="translate(244.632975, 307.270142)"><g><path d="M 13.609375 -6.078125 L 14.25 -3.109375 L 1.890625 -0.40625 L -1.59375 -16.375 L 10.484375 -19.015625 L 11.125 -16.046875 L 2.734375 -14.21875 L 3.5 -10.765625 L 10.90625 -12.390625 L 11.53125 -9.515625 L 4.125 -7.890625 L 4.9375 -4.1875 Z M 13.609375 -6.078125 "/></g></g></g><g fill="#000000" fill-opacity="0.502"><g transform="translate(276.507941, 299.333289)"><g><path d="M 7.03125 -2.0625 C 5.800781 -1.644531 4.554688 -1.410156 3.296875 -1.359375 C 2.035156 -1.304688 0.972656 -1.429688 0.109375 -1.734375 L 0.421875 -4.84375 C 1.242188 -4.582031 2.160156 -4.457031 3.171875 -4.46875 C 4.191406 -4.476562 5.160156 -4.632812 6.078125 -4.9375 C 7.097656 -5.28125 7.796875 -5.6875 8.171875 -6.15625 C 8.554688 -6.625 8.664062 -7.109375 8.5 -7.609375 C 8.375 -7.972656 8.128906 -8.226562 7.765625 -8.375 C 7.398438 -8.53125 6.96875 -8.601562 6.46875 -8.59375 C 5.96875 -8.59375 5.304688 -8.550781 4.484375 -8.46875 C 3.203125 -8.351562 2.132812 -8.3125 1.28125 -8.34375 C 0.4375 -8.375 -0.351562 -8.609375 -1.09375 -9.046875 C -1.84375 -9.484375 -2.390625 -10.222656 -2.734375 -11.265625 C -3.035156 -12.160156 -3.066406 -13.050781 -2.828125 -13.9375 C -2.585938 -14.832031 -2.046875 -15.65625 -1.203125 -16.40625 C -0.367188 -17.164062 0.757812 -17.785156 2.1875 -18.265625 C 3.175781 -18.597656 4.179688 -18.804688 5.203125 -18.890625 C 6.222656 -18.972656 7.160156 -18.914062 8.015625 -18.71875 L 7.8125 -15.609375 C 6.101562 -15.941406 4.535156 -15.867188 3.109375 -15.390625 C 2.109375 -15.046875 1.421875 -14.628906 1.046875 -14.140625 C 0.671875 -13.648438 0.578125 -13.140625 0.765625 -12.609375 C 0.929688 -12.085938 1.335938 -11.789062 1.984375 -11.71875 C 2.628906 -11.644531 3.5625 -11.675781 4.78125 -11.8125 C 6.050781 -11.925781 7.109375 -11.96875 7.953125 -11.9375 C 8.804688 -11.90625 9.601562 -11.675781 10.34375 -11.25 C 11.09375 -10.832031 11.644531 -10.101562 12 -9.0625 C 12.289062 -8.1875 12.3125 -7.296875 12.0625 -6.390625 C 11.8125 -5.492188 11.257812 -4.664062 10.40625 -3.90625 C 9.5625 -3.144531 8.4375 -2.53125 7.03125 -2.0625 Z M 7.03125 -2.0625 "/></g></g></g><g fill="#000000" fill-opacity="0.502"><g transform="translate(306.599002, 288.267178)"><g><path d="M -0.6875 -14.28125 L -5.453125 -12.109375 L -6.734375 -14.90625 L 6.21875 -20.84375 L 7.5 -18.046875 L 2.75 -15.859375 L 8.28125 -3.796875 L 4.84375 -2.21875 Z M -0.6875 -14.28125 "/></g></g></g><g fill="#000000" fill-opacity="0.302"><g transform="translate(58.319805, 283.280413)"><g><path d="M 10.375 -9.84375 L 5.609375 -12.015625 L 6.890625 -14.8125 L 19.84375 -8.875 L 18.5625 -6.078125 L 13.8125 -8.265625 L 8.28125 3.796875 L 4.84375 2.21875 Z M 10.375 -9.84375 "/></g></g></g><g fill="#000000" fill-opacity="0.302"><g transform="translate(87.426783, 295.682183)"><g><path d="M 13.15625 0.65625 L 5.953125 -1.734375 L 3.484375 1.15625 L -0.1875 -0.0625 L 11.828125 -13.296875 L 15.375 -12.125 L 17.21875 5.671875 L 13.4375 4.4375 Z M 12.9375 -2.4375 L 12.421875 -9.203125 L 8.015625 -4.0625 Z M 12.9375 -2.4375 "/></g></g></g><g fill="#000000" fill-opacity="0.302"><g transform="translate(121.061924, 305.653207)"><g><path d="M 5.25 -15.59375 L 8.953125 -14.828125 L 6.234375 -1.84375 L 14.265625 -0.15625 L 13.625 2.859375 L 1.890625 0.40625 Z M 5.25 -15.59375 "/></g></g></g><g fill="#000000" fill-opacity="0.302"><g transform="translate(151.855201, 311.255914)"><g><path d="M 8.484375 -5.625 L 6.078125 -3.578125 L 5.671875 0.546875 L 1.921875 0.1875 L 3.515625 -16.078125 L 7.265625 -15.71875 L 6.515625 -8.125 L 14.46875 -15 L 18.65625 -14.59375 L 11.203125 -8 L 17.46875 1.703125 L 13.0625 1.28125 Z M 8.484375 -5.625 "/></g></g></g><g fill="#000000" fill-opacity="0.302"><g transform="translate(186.144477, 313.512986)"><g/></g></g><g fill="#000000" fill-opacity="0.302"><g transform="translate(209.871298, 312.970631)"><g><path d="M 15.234375 -17.953125 L 16.859375 -1.6875 L 13.765625 -1.375 L 4.65625 -10.4375 L 5.640625 -0.5625 L 1.921875 -0.1875 L 0.296875 -16.453125 L 3.40625 -16.765625 L 12.5 -7.703125 L 11.515625 -17.578125 Z M 15.234375 -17.953125 "/></g></g></g><g fill="#000000" fill-opacity="0.302"><g transform="translate(245.665234, 308.302387)"><g><path d="M 13.609375 -6.078125 L 14.25 -3.109375 L 1.890625 -0.40625 L -1.59375 -16.375 L 10.484375 -19.015625 L 11.125 -16.046875 L 2.734375 -14.21875 L 3.5 -10.765625 L 10.90625 -12.390625 L 11.53125 -9.515625 L 4.125 -7.890625 L 4.9375 -4.1875 Z M 13.609375 -6.078125 "/></g></g></g><g fill="#000000" fill-opacity="0.302"><g transform="translate(277.540217, 300.365534)"><g><path d="M 7.03125 -2.0625 C 5.800781 -1.644531 4.554688 -1.410156 3.296875 -1.359375 C 2.035156 -1.304688 0.972656 -1.429688 0.109375 -1.734375 L 0.421875 -4.84375 C 1.242188 -4.582031 2.160156 -4.457031 3.171875 -4.46875 C 4.191406 -4.476562 5.160156 -4.632812 6.078125 -4.9375 C 7.097656 -5.28125 7.796875 -5.6875 8.171875 -6.15625 C 8.554688 -6.625 8.664062 -7.109375 8.5 -7.609375 C 8.375 -7.972656 8.128906 -8.226562 7.765625 -8.375 C 7.398438 -8.53125 6.96875 -8.601562 6.46875 -8.59375 C 5.96875 -8.59375 5.304688 -8.550781 4.484375 -8.46875 C 3.203125 -8.351562 2.132812 -8.3125 1.28125 -8.34375 C 0.4375 -8.375 -0.351562 -8.609375 -1.09375 -9.046875 C -1.84375 -9.484375 -2.390625 -10.222656 -2.734375 -11.265625 C -3.035156 -12.160156 -3.066406 -13.050781 -2.828125 -13.9375 C -2.585938 -14.832031 -2.046875 -15.65625 -1.203125 -16.40625 C -0.367188 -17.164062 0.757812 -17.785156 2.1875 -18.265625 C 3.175781 -18.597656 4.179688 -18.804688 5.203125 -18.890625 C 6.222656 -18.972656 7.160156 -18.914062 8.015625 -18.71875 L 7.8125 -15.609375 C 6.101562 -15.941406 4.535156 -15.867188 3.109375 -15.390625 C 2.109375 -15.046875 1.421875 -14.628906 1.046875 -14.140625 C 0.671875 -13.648438 0.578125 -13.140625 0.765625 -12.609375 C 0.929688 -12.085938 1.335938 -11.789062 1.984375 -11.71875 C 2.628906 -11.644531 3.5625 -11.675781 4.78125 -11.8125 C 6.050781 -11.925781 7.109375 -11.96875 7.953125 -11.9375 C 8.804688 -11.90625 9.601562 -11.675781 10.34375 -11.25 C 11.09375 -10.832031 11.644531 -10.101562 12 -9.0625 C 12.289062 -8.1875 12.3125 -7.296875 12.0625 -6.390625 C 11.8125 -5.492188 11.257812 -4.664062 10.40625 -3.90625 C 9.5625 -3.144531 8.4375 -2.53125 7.03125 -2.0625 Z M 7.03125 -2.0625 "/></g></g></g><g fill="#000000" fill-opacity="0.302"><g transform="translate(307.631249, 289.299426)"><g><path d="M -0.6875 -14.28125 L -5.453125 -12.109375 L -6.734375 -14.90625 L 6.21875 -20.84375 L 7.5 -18.046875 L 2.75 -15.859375 L 8.28125 -3.796875 L 4.84375 -2.21875 Z M -0.6875 -14.28125 "/></g></g></g><g fill="#ffffff" fill-opacity="1"><g transform="translate(56.255289, 281.21589)"><g><path d="M 10.375 -9.84375 L 5.609375 -12.015625 L 6.890625 -14.8125 L 19.84375 -8.875 L 18.5625 -6.078125 L 13.8125 -8.265625 L 8.28125 3.796875 L 4.84375 2.21875 Z M 10.375 -9.84375 "/></g></g></g><g fill="#ffffff" fill-opacity="1"><g transform="translate(85.362269, 293.61766)"><g><path d="M 13.15625 0.65625 L 5.953125 -1.734375 L 3.484375 1.15625 L -0.1875 -0.0625 L 11.828125 -13.296875 L 15.375 -12.125 L 17.21875 5.671875 L 13.4375 4.4375 Z M 12.9375 -2.4375 L 12.421875 -9.203125 L 8.015625 -4.0625 Z M 12.9375 -2.4375 "/></g></g></g><g fill="#ffffff" fill-opacity="1"><g transform="translate(118.997403, 303.588686)"><g><path d="M 5.25 -15.59375 L 8.953125 -14.828125 L 6.234375 -1.84375 L 14.265625 -0.15625 L 13.625 2.859375 L 1.890625 0.40625 Z M 5.25 -15.59375 "/></g></g></g><g fill="#ffffff" fill-opacity="1"><g transform="translate(149.79068, 309.191391)"><g><path d="M 8.484375 -5.625 L 6.078125 -3.578125 L 5.671875 0.546875 L 1.921875 0.1875 L 3.515625 -16.078125 L 7.265625 -15.71875 L 6.515625 -8.125 L 14.46875 -15 L 18.65625 -14.59375 L 11.203125 -8 L 17.46875 1.703125 L 13.0625 1.28125 Z M 8.484375 -5.625 "/></g></g></g><g fill="#ffffff" fill-opacity="1"><g transform="translate(184.079956, 311.448465)"><g/></g></g><g fill="#ffffff" fill-opacity="1"><g transform="translate(207.806778, 310.906108)"><g><path d="M 15.234375 -17.953125 L 16.859375 -1.6875 L 13.765625 -1.375 L 4.65625 -10.4375 L 5.640625 -0.5625 L 1.921875 -0.1875 L 0.296875 -16.453125 L 3.40625 -16.765625 L 12.5 -7.703125 L 11.515625 -17.578125 Z M 15.234375 -17.953125 "/></g></g></g><g fill="#ffffff" fill-opacity="1"><g transform="translate(243.600714, 306.237866)"><g><path d="M 13.609375 -6.078125 L 14.25 -3.109375 L 1.890625 -0.40625 L -1.59375 -16.375 L 10.484375 -19.015625 L 11.125 -16.046875 L 2.734375 -14.21875 L 3.5 -10.765625 L 10.90625 -12.390625 L 11.53125 -9.515625 L 4.125 -7.890625 L 4.9375 -4.1875 Z M 13.609375 -6.078125 "/></g></g></g><g fill="#ffffff" fill-opacity="1"><g transform="translate(275.475696, 298.301013)"><g><path d="M 7.03125 -2.0625 C 5.800781 -1.644531 4.554688 -1.410156 3.296875 -1.359375 C 2.035156 -1.304688 0.972656 -1.429688 0.109375 -1.734375 L 0.421875 -4.84375 C 1.242188 -4.582031 2.160156 -4.457031 3.171875 -4.46875 C 4.191406 -4.476562 5.160156 -4.632812 6.078125 -4.9375 C 7.097656 -5.28125 7.796875 -5.6875 8.171875 -6.15625 C 8.554688 -6.625 8.664062 -7.109375 8.5 -7.609375 C 8.375 -7.972656 8.128906 -8.226562 7.765625 -8.375 C 7.398438 -8.53125 6.96875 -8.601562 6.46875 -8.59375 C 5.96875 -8.59375 5.304688 -8.550781 4.484375 -8.46875 C 3.203125 -8.351562 2.132812 -8.3125 1.28125 -8.34375 C 0.4375 -8.375 -0.351562 -8.609375 -1.09375 -9.046875 C -1.84375 -9.484375 -2.390625 -10.222656 -2.734375 -11.265625 C -3.035156 -12.160156 -3.066406 -13.050781 -2.828125 -13.9375 C -2.585938 -14.832031 -2.046875 -15.65625 -1.203125 -16.40625 C -0.367188 -17.164062 0.757812 -17.785156 2.1875 -18.265625 C 3.175781 -18.597656 4.179688 -18.804688 5.203125 -18.890625 C 6.222656 -18.972656 7.160156 -18.914062 8.015625 -18.71875 L 7.8125 -15.609375 C 6.101562 -15.941406 4.535156 -15.867188 3.109375 -15.390625 C 2.109375 -15.046875 1.421875 -14.628906 1.046875 -14.140625 C 0.671875 -13.648438 0.578125 -13.140625 0.765625 -12.609375 C 0.929688 -12.085938 1.335938 -11.789062 1.984375 -11.71875 C 2.628906 -11.644531 3.5625 -11.675781 4.78125 -11.8125 C 6.050781 -11.925781 7.109375 -11.96875 7.953125 -11.9375 C 8.804688 -11.90625 9.601562 -11.675781 10.34375 -11.25 C 11.09375 -10.832031 11.644531 -10.101562 12 -9.0625 C 12.289062 -8.1875 12.3125 -7.296875 12.0625 -6.390625 C 11.8125 -5.492188 11.257812 -4.664062 10.40625 -3.90625 C 9.5625 -3.144531 8.4375 -2.53125 7.03125 -2.0625 Z M 7.03125 -2.0625 "/></g></g></g><g fill="#ffffff" fill-opacity="1"><g transform="translate(305.566726, 287.234905)"><g><path d="M -0.6875 -14.28125 L -5.453125 -12.109375 L -6.734375 -14.90625 L 6.21875 -20.84375 L 7.5 -18.046875 L 2.75 -15.859375 L 8.28125 -3.796875 L 4.84375 -2.21875 Z M -0.6875 -14.28125 "/></g></g></g></svg>